<?xml version="1.0" encoding="UTF-8"?><svg xmlns="http://www.w3.org/2000/svg" xmlns:xlink="http://www.w3.org/1999/xlink" width="375pt" zoomAndPan="magnify" viewBox="0 0 375 374.999991" height="374.999991pt" preserveAspectRatio="xMidYMid meet" version="1.2"><defs><g/><clipPath xml:id="clip1" id="clip1"><path d="M 15.058594 113 L 165 113 L 165 262.125 L 15.058594 262.125 Z M 15.058594 113 "/></clipPath></defs><g xml:id="surface1" id="surface1"><rect x="0" width="375" y="0" height="374.999991" style="fill:rgb(100%,100%,100%);fill-opacity:1;stroke:none;"/><rect x="0" width="375" y="0" height="374.999991" style="fill:rgb(100%,100%,100%);fill-opacity:1;stroke:none;"/><rect x="0" width="375" y="0" height="374.999991" style="fill:rgb(100%,100%,100%);fill-opacity:1;stroke:none;"/><g clip-rule="nonzero" clip-path="url(#clip1)"><path style=" stroke:none;fill-rule:nonzero;fill:rgb(8.239746%,45.098877%,27.839661%);fill-opacity:1;" d="M 162.152344 161.363281 L 93.128906 114.148438 C 91.265625 112.875 88.816406 112.875 86.984375 114.148438 L 17.960938 161.363281 C 15.976562 162.699219 15.136719 165.179688 15.820312 167.476562 C 16.53125 169.769531 18.644531 171.320312 21.03125 171.320312 L 33.75 171.320312 L 33.75 256.664062 C 33.75 259.675781 36.203125 262.125 39.210938 262.125 L 140.902344 262.125 C 143.914062 262.125 146.363281 259.675781 146.363281 256.664062 L 146.363281 171.289062 L 159.082031 171.289062 C 161.472656 171.289062 163.582031 169.738281 164.292969 167.445312 C 164.976562 165.179688 164.109375 162.699219 162.152344 161.363281 Z M 110.035156 180.378906 C 110.035156 191.425781 101.101562 200.359375 90.058594 200.359375 C 79.011719 200.359375 70.078125 191.425781 70.078125 180.378906 C 70.078125 169.335938 79.011719 160.402344 90.058594 160.402344 C 101.101562 160.402344 110.035156 169.335938 110.035156 180.378906 Z M 119.125 253.003906 L 60.988281 253.003906 L 60.988281 214.472656 C 60.988281 209.664062 64.867188 205.789062 69.675781 205.789062 L 110.40625 205.789062 C 115.214844 205.789062 119.09375 209.664062 119.09375 214.472656 L 119.09375 253.003906 Z M 119.125 253.003906 "/></g><g style="fill:rgb(8.239746%,45.098877%,27.839661%);fill-opacity:1;"><g transform="translate(172.082909, 193.912737)"><path style="stroke:none;" d="M 1.828125 -25.109375 L 10.984375 -25.109375 C 13.546875 -25.109375 15.617188 -24.445312 17.203125 -23.125 C 18.785156 -21.8125 19.578125 -19.894531 19.578125 -17.375 C 19.578125 -14.863281 18.773438 -12.890625 17.171875 -11.453125 C 15.566406 -10.023438 13.503906 -9.3125 10.984375 -9.3125 L 7.546875 -9.3125 L 7.546875 0 L 1.828125 0 Z M 7.546875 -13.875 L 9.15625 -13.875 C 10.4375 -13.875 11.488281 -14.132812 12.3125 -14.65625 C 13.132812 -15.175781 13.546875 -16.023438 13.546875 -17.203125 C 13.546875 -18.398438 13.132812 -19.253906 12.3125 -19.765625 C 11.488281 -20.285156 10.4375 -20.546875 9.15625 -20.546875 L 7.546875 -20.546875 Z M 7.546875 -13.875 "/></g></g><g style="fill:rgb(8.239746%,45.098877%,27.839661%);fill-opacity:1;"><g transform="translate(195.395974, 193.912737)"><path style="stroke:none;" d="M 14.578125 -25.109375 L 24.71875 0 L 18.5625 0 L 16.703125 -5.015625 L 7.15625 -5.015625 L 5.296875 0 L -0.859375 0 L 9.28125 -25.109375 Z M 14.765625 -10.046875 L 11.96875 -17.34375 L 11.90625 -17.34375 L 9.09375 -10.046875 Z M 14.765625 -10.046875 "/></g></g><g style="fill:rgb(8.239746%,45.098877%,27.839661%);fill-opacity:1;"><g transform="translate(222.300197, 193.912737)"><path style="stroke:none;" d="M 1.828125 -25.109375 L 10.8125 -25.109375 C 13.21875 -25.109375 15.179688 -24.460938 16.703125 -23.171875 C 18.234375 -21.890625 19 -20.050781 19 -17.65625 C 19 -15.8125 18.535156 -14.265625 17.609375 -13.015625 C 16.679688 -11.765625 15.425781 -10.882812 13.84375 -10.375 L 22.5 0 L 15.21875 0 L 7.546875 -9.921875 L 7.546875 0 L 1.828125 0 Z M 7.546875 -13.96875 L 8.21875 -13.96875 C 8.75 -13.96875 9.195312 -13.976562 9.5625 -14 C 9.925781 -14.019531 10.335938 -14.085938 10.796875 -14.203125 C 11.265625 -14.328125 11.640625 -14.5 11.921875 -14.71875 C 12.210938 -14.945312 12.457031 -15.273438 12.65625 -15.703125 C 12.863281 -16.128906 12.96875 -16.644531 12.96875 -17.25 C 12.96875 -17.863281 12.863281 -18.382812 12.65625 -18.8125 C 12.457031 -19.238281 12.210938 -19.5625 11.921875 -19.78125 C 11.640625 -20.007812 11.265625 -20.179688 10.796875 -20.296875 C 10.335938 -20.421875 9.925781 -20.492188 9.5625 -20.515625 C 9.195312 -20.535156 8.75 -20.546875 8.21875 -20.546875 L 7.546875 -20.546875 Z M 7.546875 -13.96875 "/></g></g><g style="fill:rgb(8.239746%,45.098877%,27.839661%);fill-opacity:1;"><g transform="translate(247.134939, 193.912737)"><path style="stroke:none;" d="M 14.578125 -25.109375 L 24.71875 0 L 18.5625 0 L 16.703125 -5.015625 L 7.15625 -5.015625 L 5.296875 0 L -0.859375 0 L 9.28125 -25.109375 Z M 14.765625 -10.046875 L 11.96875 -17.34375 L 11.90625 -17.34375 L 9.09375 -10.046875 Z M 14.765625 -10.046875 "/></g></g><g style="fill:rgb(8.239746%,45.098877%,27.839661%);fill-opacity:1;"><g transform="translate(274.039161, 193.912737)"><path style="stroke:none;" d="M 7.546875 -25.109375 L 7.546875 0 L 1.828125 0 L 1.828125 -25.109375 Z M 7.546875 -25.109375 "/></g></g><g style="fill:rgb(8.239746%,45.098877%,27.839661%);fill-opacity:1;"><g transform="translate(286.456995, 193.912737)"><path style="stroke:none;" d="M 11.078125 -25.5625 C 12.441406 -25.5625 13.769531 -25.363281 15.0625 -24.96875 C 16.363281 -24.570312 17.328125 -24.179688 17.953125 -23.796875 L 18.875 -23.1875 L 16.5625 -18.625 C 16.375 -18.75 16.117188 -18.90625 15.796875 -19.09375 C 15.472656 -19.289062 14.863281 -19.550781 13.96875 -19.875 C 13.070312 -20.195312 12.238281 -20.359375 11.46875 -20.359375 C 10.519531 -20.359375 9.785156 -20.15625 9.265625 -19.75 C 8.742188 -19.34375 8.484375 -18.796875 8.484375 -18.109375 C 8.484375 -17.765625 8.601562 -17.441406 8.84375 -17.140625 C 9.09375 -16.847656 9.507812 -16.535156 10.09375 -16.203125 C 10.6875 -15.867188 11.207031 -15.597656 11.65625 -15.390625 C 12.101562 -15.191406 12.796875 -14.890625 13.734375 -14.484375 C 15.347656 -13.796875 16.726562 -12.859375 17.875 -11.671875 C 19.03125 -10.484375 19.609375 -9.140625 19.609375 -7.640625 C 19.609375 -6.203125 19.347656 -4.941406 18.828125 -3.859375 C 18.304688 -2.785156 17.59375 -1.941406 16.6875 -1.328125 C 15.789062 -0.722656 14.789062 -0.273438 13.6875 0.015625 C 12.59375 0.304688 11.410156 0.453125 10.140625 0.453125 C 9.035156 0.453125 7.957031 0.335938 6.90625 0.109375 C 5.851562 -0.109375 4.972656 -0.382812 4.265625 -0.71875 C 3.554688 -1.050781 2.914062 -1.378906 2.34375 -1.703125 C 1.769531 -2.023438 1.351562 -2.300781 1.09375 -2.53125 L 0.703125 -2.859375 L 3.5625 -7.671875 C 3.800781 -7.460938 4.132812 -7.203125 4.5625 -6.890625 C 4.988281 -6.578125 5.742188 -6.15625 6.828125 -5.625 C 7.921875 -5.101562 8.878906 -4.84375 9.703125 -4.84375 C 12.117188 -4.84375 13.328125 -5.664062 13.328125 -7.3125 C 13.328125 -7.65625 13.238281 -7.972656 13.0625 -8.265625 C 12.894531 -8.554688 12.59375 -8.847656 12.15625 -9.140625 C 11.71875 -9.441406 11.332031 -9.675781 11 -9.84375 C 10.664062 -10.019531 10.117188 -10.285156 9.359375 -10.640625 C 8.597656 -10.992188 8.035156 -11.257812 7.671875 -11.4375 C 6.148438 -12.195312 4.972656 -13.140625 4.140625 -14.265625 C 3.304688 -15.390625 2.890625 -16.597656 2.890625 -17.890625 C 2.890625 -20.148438 3.722656 -21.992188 5.390625 -23.421875 C 7.054688 -24.847656 8.953125 -25.5625 11.078125 -25.5625 Z M 11.078125 -25.5625 "/></g></g><g style="fill:rgb(8.239746%,45.098877%,27.839661%);fill-opacity:1;"><g transform="translate(309.952664, 193.912737)"><path style="stroke:none;" d="M 0.703125 -12.578125 C 0.703125 -16.203125 1.9375 -19.269531 4.40625 -21.78125 C 6.882812 -24.300781 9.867188 -25.5625 13.359375 -25.5625 C 16.867188 -25.5625 19.851562 -24.304688 22.3125 -21.796875 C 24.769531 -19.296875 26 -16.222656 26 -12.578125 C 26 -8.898438 24.789062 -5.804688 22.375 -3.296875 C 19.957031 -0.796875 16.953125 0.453125 13.359375 0.453125 C 9.691406 0.453125 6.664062 -0.785156 4.28125 -3.265625 C 1.894531 -5.753906 0.703125 -8.859375 0.703125 -12.578125 Z M 6.875 -12.578125 C 6.875 -11.253906 7.078125 -10.046875 7.484375 -8.953125 C 7.890625 -7.867188 8.597656 -6.953125 9.609375 -6.203125 C 10.628906 -5.453125 11.878906 -5.078125 13.359375 -5.078125 C 15.492188 -5.078125 17.101562 -5.804688 18.1875 -7.265625 C 19.269531 -8.734375 19.8125 -10.503906 19.8125 -12.578125 C 19.8125 -14.617188 19.257812 -16.375 18.15625 -17.84375 C 17.050781 -19.320312 15.453125 -20.0625 13.359375 -20.0625 C 11.285156 -20.0625 9.6875 -19.320312 8.5625 -17.84375 C 7.4375 -16.375 6.875 -14.617188 6.875 -12.578125 Z M 6.875 -12.578125 "/></g></g><g style="fill:rgb(8.239746%,45.098877%,27.839661%);fill-opacity:1;"><g transform="translate(172.082909, 229.912735)"><path style="stroke:none;" d="M 1.828125 -25.109375 L 9.09375 -25.109375 C 12.59375 -25.109375 15.578125 -23.914062 18.046875 -21.53125 C 20.523438 -19.144531 21.765625 -16.160156 21.765625 -12.578125 C 21.765625 -8.960938 20.53125 -5.960938 18.0625 -3.578125 C 15.59375 -1.191406 12.601562 0 9.09375 0 L 1.828125 0 Z M 7.546875 -5.109375 L 8.4375 -5.109375 C 10.519531 -5.109375 12.222656 -5.8125 13.546875 -7.21875 C 14.878906 -8.632812 15.554688 -10.410156 15.578125 -12.546875 C 15.578125 -14.671875 14.910156 -16.441406 13.578125 -17.859375 C 12.253906 -19.285156 10.539062 -20 8.4375 -20 L 7.546875 -20 Z M 7.546875 -5.109375 "/></g></g><g style="fill:rgb(8.239746%,45.098877%,27.839661%);fill-opacity:1;"><g transform="translate(197.587188, 229.912735)"><path style="stroke:none;" d="M 14.578125 -25.109375 L 24.71875 0 L 18.5625 0 L 16.703125 -5.015625 L 7.15625 -5.015625 L 5.296875 0 L -0.859375 0 L 9.28125 -25.109375 Z M 14.765625 -10.046875 L 11.96875 -17.34375 L 11.90625 -17.34375 L 9.09375 -10.046875 Z M 14.765625 -10.046875 "/></g></g><g style="fill:rgb(8.239746%,45.098877%,27.839661%);fill-opacity:1;"><g transform="translate(224.49141, 229.912735)"><path style="stroke:none;" d=""/></g></g><g style="fill:rgb(8.239746%,45.098877%,27.839661%);fill-opacity:1;"><g transform="translate(235.844074, 229.912735)"><path style="stroke:none;" d="M 1.828125 -25.109375 L 10.984375 -25.109375 C 13.546875 -25.109375 15.617188 -24.445312 17.203125 -23.125 C 18.785156 -21.8125 19.578125 -19.894531 19.578125 -17.375 C 19.578125 -14.863281 18.773438 -12.890625 17.171875 -11.453125 C 15.566406 -10.023438 13.503906 -9.3125 10.984375 -9.3125 L 7.546875 -9.3125 L 7.546875 0 L 1.828125 0 Z M 7.546875 -13.875 L 9.15625 -13.875 C 10.4375 -13.875 11.488281 -14.132812 12.3125 -14.65625 C 13.132812 -15.175781 13.546875 -16.023438 13.546875 -17.203125 C 13.546875 -18.398438 13.132812 -19.253906 12.3125 -19.765625 C 11.488281 -20.285156 10.4375 -20.546875 9.15625 -20.546875 L 7.546875 -20.546875 Z M 7.546875 -13.875 "/></g></g><g style="fill:rgb(8.239746%,45.098877%,27.839661%);fill-opacity:1;"><g transform="translate(259.157141, 229.912735)"><path style="stroke:none;" d="M 16.1875 -25.109375 L 16.1875 -20.09375 L 7.546875 -20.09375 L 7.546875 -15.09375 L 15.828125 -15.09375 L 15.828125 -10.078125 L 7.546875 -10.078125 L 7.546875 -5.015625 L 16.1875 -5.015625 L 16.1875 0 L 1.828125 0 L 1.828125 -25.109375 Z M 16.1875 -25.109375 "/></g></g><g style="fill:rgb(8.239746%,45.098877%,27.839661%);fill-opacity:1;"><g transform="translate(279.85291, 229.912735)"><path style="stroke:none;" d="M 7.546875 -15.578125 L 7.546875 0 L 1.828125 0 L 1.828125 -25.109375 L 7.546875 -25.109375 L 17.53125 -9.53125 L 17.59375 -9.53125 L 17.59375 -25.109375 L 23.3125 -25.109375 L 23.3125 0 L 17.59375 0 L 7.609375 -15.578125 Z M 7.546875 -15.578125 "/></g></g><g style="fill:rgb(8.239746%,45.098877%,27.839661%);fill-opacity:1;"><g transform="translate(308.035346, 229.912735)"><path style="stroke:none;" d="M 7.546875 -10.078125 L 7.546875 0 L 1.828125 0 L 1.828125 -25.109375 L 7.546875 -25.109375 L 7.546875 -15.09375 L 15.640625 -15.09375 L 15.640625 -25.109375 L 21.359375 -25.109375 L 21.359375 0 L 15.640625 0 L 15.640625 -10.078125 Z M 7.546875 -10.078125 "/></g></g><g style="fill:rgb(8.239746%,45.098877%,27.839661%);fill-opacity:1;"><g transform="translate(334.270032, 229.912735)"><path style="stroke:none;" d="M 14.578125 -25.109375 L 24.71875 0 L 18.5625 0 L 16.703125 -5.015625 L 7.15625 -5.015625 L 5.296875 0 L -0.859375 0 L 9.28125 -25.109375 Z M 14.765625 -10.046875 L 11.96875 -17.34375 L 11.90625 -17.34375 L 9.09375 -10.046875 Z M 14.765625 -10.046875 "/></g></g><g style="fill:rgb(1.959229%,3.919983%,18.818665%);fill-opacity:1;"><g transform="translate(172.082909, 259.588076)"><path style="stroke:none;" d="M 9.5 -4.484375 C 9.5 -4.078125 9.457031 -3.691406 9.375 -3.328125 C 9.289062 -2.960938 9.171875 -2.617188 9.015625 -2.296875 C 8.859375 -1.984375 8.664062 -1.691406 8.4375 -1.421875 C 8.21875 -1.160156 7.96875 -0.925781 7.6875 -0.71875 L 9.96875 1.75 L 8.59375 1.75 C 8.394531 1.75 8.210938 1.722656 8.046875 1.671875 C 7.890625 1.617188 7.742188 1.519531 7.609375 1.375 L 6.296875 -0.078125 C 6.085938 -0.015625 5.875 0.0234375 5.65625 0.046875 C 5.4375 0.078125 5.207031 0.09375 4.96875 0.09375 C 4.289062 0.09375 3.671875 -0.0195312 3.109375 -0.25 C 2.546875 -0.476562 2.066406 -0.796875 1.671875 -1.203125 C 1.273438 -1.609375 0.96875 -2.09375 0.75 -2.65625 C 0.53125 -3.21875 0.421875 -3.828125 0.421875 -4.484375 C 0.421875 -5.140625 0.53125 -5.742188 0.75 -6.296875 C 0.96875 -6.859375 1.273438 -7.34375 1.671875 -7.75 C 2.066406 -8.164062 2.546875 -8.488281 3.109375 -8.71875 C 3.671875 -8.945312 4.289062 -9.0625 4.96875 -9.0625 C 5.644531 -9.0625 6.257812 -8.941406 6.8125 -8.703125 C 7.375 -8.472656 7.851562 -8.15625 8.25 -7.75 C 8.644531 -7.34375 8.953125 -6.859375 9.171875 -6.296875 C 9.390625 -5.742188 9.5 -5.140625 9.5 -4.484375 Z M 7.78125 -4.484375 C 7.78125 -4.972656 7.710938 -5.410156 7.578125 -5.796875 C 7.453125 -6.191406 7.269531 -6.523438 7.03125 -6.796875 C 6.789062 -7.066406 6.492188 -7.273438 6.140625 -7.421875 C 5.796875 -7.566406 5.40625 -7.640625 4.96875 -7.640625 C 4.53125 -7.640625 4.132812 -7.566406 3.78125 -7.421875 C 3.425781 -7.273438 3.125 -7.066406 2.875 -6.796875 C 2.632812 -6.523438 2.445312 -6.191406 2.3125 -5.796875 C 2.1875 -5.410156 2.125 -4.972656 2.125 -4.484375 C 2.125 -3.984375 2.1875 -3.539062 2.3125 -3.15625 C 2.445312 -2.769531 2.632812 -2.441406 2.875 -2.171875 C 3.125 -1.898438 3.425781 -1.691406 3.78125 -1.546875 C 4.132812 -1.398438 4.53125 -1.328125 4.96875 -1.328125 C 5.40625 -1.328125 5.796875 -1.398438 6.140625 -1.546875 C 6.492188 -1.691406 6.789062 -1.898438 7.03125 -2.171875 C 7.269531 -2.441406 7.453125 -2.769531 7.578125 -3.15625 C 7.710938 -3.539062 7.78125 -3.984375 7.78125 -4.484375 Z M 7.78125 -4.484375 "/></g></g><g style="fill:rgb(1.959229%,3.919983%,18.818665%);fill-opacity:1;"><g transform="translate(184.472194, 259.588076)"><path style="stroke:none;" d="M 4.515625 -1.34375 C 4.835938 -1.34375 5.125 -1.394531 5.375 -1.5 C 5.625 -1.613281 5.835938 -1.765625 6.015625 -1.953125 C 6.191406 -2.148438 6.328125 -2.382812 6.421875 -2.65625 C 6.515625 -2.9375 6.5625 -3.25 6.5625 -3.59375 L 6.5625 -8.953125 L 8.234375 -8.953125 L 8.234375 -3.59375 C 8.234375 -3.0625 8.144531 -2.566406 7.96875 -2.109375 C 7.800781 -1.660156 7.554688 -1.269531 7.234375 -0.9375 C 6.910156 -0.613281 6.519531 -0.359375 6.0625 -0.171875 C 5.601562 0.00390625 5.085938 0.09375 4.515625 0.09375 C 3.941406 0.09375 3.425781 0.00390625 2.96875 -0.171875 C 2.507812 -0.359375 2.117188 -0.613281 1.796875 -0.9375 C 1.472656 -1.269531 1.222656 -1.660156 1.046875 -2.109375 C 0.878906 -2.566406 0.796875 -3.0625 0.796875 -3.59375 L 0.796875 -8.953125 L 2.46875 -8.953125 L 2.46875 -3.59375 C 2.46875 -3.25 2.515625 -2.9375 2.609375 -2.65625 C 2.703125 -2.382812 2.832031 -2.148438 3 -1.953125 C 3.175781 -1.765625 3.390625 -1.613281 3.640625 -1.5 C 3.898438 -1.394531 4.191406 -1.34375 4.515625 -1.34375 Z M 4.515625 -1.34375 "/></g></g><g style="fill:rgb(1.959229%,3.919983%,18.818665%);fill-opacity:1;"><g transform="translate(195.975328, 259.588076)"><path style="stroke:none;" d="M 8.78125 0 L 7.484375 0 C 7.335938 0 7.21875 -0.0351562 7.125 -0.109375 C 7.039062 -0.179688 6.976562 -0.269531 6.9375 -0.375 L 6.265625 -2.203125 L 2.546875 -2.203125 L 1.890625 -0.375 C 1.847656 -0.28125 1.78125 -0.191406 1.6875 -0.109375 C 1.59375 -0.0351562 1.472656 0 1.328125 0 L 0.03125 0 L 3.5625 -8.953125 L 5.265625 -8.953125 Z M 2.984375 -3.375 L 5.84375 -3.375 L 4.75 -6.359375 C 4.695312 -6.492188 4.640625 -6.648438 4.578125 -6.828125 C 4.515625 -7.003906 4.457031 -7.203125 4.40625 -7.421875 C 4.34375 -7.203125 4.285156 -7 4.234375 -6.8125 C 4.179688 -6.632812 4.128906 -6.476562 4.078125 -6.34375 Z M 2.984375 -3.375 "/></g></g><g style="fill:rgb(1.959229%,3.919983%,18.818665%);fill-opacity:1;"><g transform="translate(207.255374, 259.588076)"><path style="stroke:none;" d="M 2.625 -3.5 L 2.625 0 L 0.953125 0 L 0.953125 -8.953125 L 3.6875 -8.953125 C 4.300781 -8.953125 4.828125 -8.890625 5.265625 -8.765625 C 5.703125 -8.640625 6.054688 -8.460938 6.328125 -8.234375 C 6.609375 -8.015625 6.8125 -7.742188 6.9375 -7.421875 C 7.070312 -7.109375 7.140625 -6.757812 7.140625 -6.375 C 7.140625 -6.070312 7.09375 -5.785156 7 -5.515625 C 6.914062 -5.253906 6.789062 -5.015625 6.625 -4.796875 C 6.457031 -4.578125 6.25 -4.382812 6 -4.21875 C 5.757812 -4.050781 5.484375 -3.921875 5.171875 -3.828125 C 5.378906 -3.703125 5.5625 -3.53125 5.71875 -3.3125 L 7.953125 0 L 6.453125 0 C 6.304688 0 6.179688 -0.0234375 6.078125 -0.078125 C 5.984375 -0.140625 5.898438 -0.222656 5.828125 -0.328125 L 3.953125 -3.203125 C 3.878906 -3.304688 3.800781 -3.378906 3.71875 -3.421875 C 3.632812 -3.472656 3.507812 -3.5 3.34375 -3.5 Z M 2.625 -4.703125 L 3.671875 -4.703125 C 3.984375 -4.703125 4.253906 -4.738281 4.484375 -4.8125 C 4.722656 -4.894531 4.914062 -5.003906 5.0625 -5.140625 C 5.21875 -5.273438 5.332031 -5.4375 5.40625 -5.625 C 5.476562 -5.820312 5.515625 -6.03125 5.515625 -6.25 C 5.515625 -6.707031 5.363281 -7.054688 5.0625 -7.296875 C 4.757812 -7.546875 4.300781 -7.671875 3.6875 -7.671875 L 2.625 -7.671875 Z M 2.625 -4.703125 "/></g></g><g style="fill:rgb(1.959229%,3.919983%,18.818665%);fill-opacity:1;"><g transform="translate(217.853775, 259.588076)"><path style="stroke:none;" d="M 7.21875 -8.953125 L 7.21875 -7.59375 L 4.515625 -7.59375 L 4.515625 0 L 2.859375 0 L 2.859375 -7.59375 L 0.15625 -7.59375 L 0.15625 -8.953125 Z M 7.21875 -8.953125 "/></g></g><g style="fill:rgb(1.959229%,3.919983%,18.818665%);fill-opacity:1;"><g transform="translate(227.708552, 259.588076)"><path style="stroke:none;" d="M 9.5 -4.484375 C 9.5 -3.828125 9.390625 -3.21875 9.171875 -2.65625 C 8.953125 -2.09375 8.644531 -1.609375 8.25 -1.203125 C 7.851562 -0.796875 7.375 -0.476562 6.8125 -0.25 C 6.257812 -0.0195312 5.644531 0.09375 4.96875 0.09375 C 4.289062 0.09375 3.671875 -0.0195312 3.109375 -0.25 C 2.546875 -0.476562 2.066406 -0.796875 1.671875 -1.203125 C 1.273438 -1.609375 0.96875 -2.09375 0.75 -2.65625 C 0.53125 -3.21875 0.421875 -3.828125 0.421875 -4.484375 C 0.421875 -5.140625 0.53125 -5.742188 0.75 -6.296875 C 0.96875 -6.859375 1.273438 -7.34375 1.671875 -7.75 C 2.066406 -8.164062 2.546875 -8.488281 3.109375 -8.71875 C 3.671875 -8.945312 4.289062 -9.0625 4.96875 -9.0625 C 5.644531 -9.0625 6.257812 -8.941406 6.8125 -8.703125 C 7.375 -8.472656 7.851562 -8.15625 8.25 -7.75 C 8.644531 -7.34375 8.953125 -6.859375 9.171875 -6.296875 C 9.390625 -5.742188 9.5 -5.140625 9.5 -4.484375 Z M 7.78125 -4.484375 C 7.78125 -4.972656 7.710938 -5.410156 7.578125 -5.796875 C 7.453125 -6.191406 7.269531 -6.523438 7.03125 -6.796875 C 6.789062 -7.066406 6.492188 -7.273438 6.140625 -7.421875 C 5.796875 -7.566406 5.40625 -7.640625 4.96875 -7.640625 C 4.53125 -7.640625 4.132812 -7.566406 3.78125 -7.421875 C 3.425781 -7.273438 3.125 -7.066406 2.875 -6.796875 C 2.632812 -6.523438 2.445312 -6.191406 2.3125 -5.796875 C 2.1875 -5.410156 2.125 -4.972656 2.125 -4.484375 C 2.125 -3.984375 2.1875 -3.539062 2.3125 -3.15625 C 2.445312 -2.769531 2.632812 -2.441406 2.875 -2.171875 C 3.125 -1.898438 3.425781 -1.691406 3.78125 -1.546875 C 4.132812 -1.398438 4.53125 -1.328125 4.96875 -1.328125 C 5.40625 -1.328125 5.796875 -1.398438 6.140625 -1.546875 C 6.492188 -1.691406 6.789062 -1.898438 7.03125 -2.171875 C 7.269531 -2.441406 7.453125 -2.769531 7.578125 -3.15625 C 7.710938 -3.539062 7.78125 -3.984375 7.78125 -4.484375 Z M 7.78125 -4.484375 "/></g></g><g style="fill:rgb(1.959229%,3.919983%,18.818665%);fill-opacity:1;"><g transform="translate(240.097838, 259.588076)"><path style="stroke:none;" d="M 5.703125 -7.328125 C 5.660156 -7.234375 5.609375 -7.164062 5.546875 -7.125 C 5.484375 -7.09375 5.410156 -7.078125 5.328125 -7.078125 C 5.242188 -7.078125 5.148438 -7.109375 5.046875 -7.171875 C 4.953125 -7.234375 4.832031 -7.304688 4.6875 -7.390625 C 4.550781 -7.472656 4.390625 -7.546875 4.203125 -7.609375 C 4.015625 -7.671875 3.789062 -7.703125 3.53125 -7.703125 C 3.300781 -7.703125 3.097656 -7.671875 2.921875 -7.609375 C 2.753906 -7.554688 2.609375 -7.476562 2.484375 -7.375 C 2.367188 -7.28125 2.28125 -7.164062 2.21875 -7.03125 C 2.164062 -6.894531 2.140625 -6.742188 2.140625 -6.578125 C 2.140625 -6.359375 2.195312 -6.179688 2.3125 -6.046875 C 2.4375 -5.910156 2.59375 -5.789062 2.78125 -5.6875 C 2.976562 -5.582031 3.203125 -5.488281 3.453125 -5.40625 C 3.703125 -5.332031 3.953125 -5.25 4.203125 -5.15625 C 4.460938 -5.070312 4.71875 -4.972656 4.96875 -4.859375 C 5.21875 -4.742188 5.4375 -4.59375 5.625 -4.40625 C 5.820312 -4.226562 5.976562 -4.007812 6.09375 -3.75 C 6.21875 -3.488281 6.28125 -3.175781 6.28125 -2.8125 C 6.28125 -2.40625 6.207031 -2.023438 6.0625 -1.671875 C 5.925781 -1.316406 5.722656 -1.007812 5.453125 -0.75 C 5.191406 -0.488281 4.867188 -0.28125 4.484375 -0.125 C 4.097656 0.0195312 3.660156 0.09375 3.171875 0.09375 C 2.878906 0.09375 2.59375 0.0664062 2.3125 0.015625 C 2.039062 -0.0351562 1.773438 -0.113281 1.515625 -0.21875 C 1.265625 -0.320312 1.03125 -0.445312 0.8125 -0.59375 C 0.59375 -0.738281 0.394531 -0.898438 0.21875 -1.078125 L 0.703125 -1.875 C 0.753906 -1.9375 0.8125 -1.984375 0.875 -2.015625 C 0.9375 -2.054688 1.003906 -2.078125 1.078125 -2.078125 C 1.179688 -2.078125 1.289062 -2.035156 1.40625 -1.953125 C 1.53125 -1.867188 1.675781 -1.773438 1.84375 -1.671875 C 2.007812 -1.566406 2.203125 -1.472656 2.421875 -1.390625 C 2.640625 -1.304688 2.90625 -1.265625 3.21875 -1.265625 C 3.6875 -1.265625 4.050781 -1.375 4.3125 -1.59375 C 4.570312 -1.820312 4.703125 -2.148438 4.703125 -2.578125 C 4.703125 -2.804688 4.644531 -2.992188 4.53125 -3.140625 C 4.414062 -3.296875 4.257812 -3.421875 4.0625 -3.515625 C 3.863281 -3.617188 3.640625 -3.707031 3.390625 -3.78125 C 3.148438 -3.851562 2.898438 -3.925781 2.640625 -4 C 2.390625 -4.082031 2.140625 -4.179688 1.890625 -4.296875 C 1.640625 -4.421875 1.414062 -4.570312 1.21875 -4.75 C 1.03125 -4.9375 0.875 -5.171875 0.75 -5.453125 C 0.632812 -5.734375 0.578125 -6.078125 0.578125 -6.484375 C 0.578125 -6.804688 0.640625 -7.125 0.765625 -7.4375 C 0.898438 -7.75 1.09375 -8.023438 1.34375 -8.265625 C 1.59375 -8.503906 1.898438 -8.695312 2.265625 -8.84375 C 2.628906 -8.988281 3.046875 -9.0625 3.515625 -9.0625 C 4.046875 -9.0625 4.53125 -8.976562 4.96875 -8.8125 C 5.414062 -8.644531 5.796875 -8.410156 6.109375 -8.109375 Z M 5.703125 -7.328125 "/></g></g><g style="fill:rgb(1.959229%,3.919983%,18.818665%);fill-opacity:1;"><g transform="translate(249.227578, 259.588076)"><path style="stroke:none;" d=""/></g></g><g style="fill:rgb(1.959229%,3.919983%,18.818665%);fill-opacity:1;"><g transform="translate(254.100097, 259.588076)"><path style="stroke:none;" d="M 2.625 -3.15625 L 2.625 0 L 0.953125 0 L 0.953125 -8.953125 L 3.875 -8.953125 C 4.476562 -8.953125 5 -8.878906 5.4375 -8.734375 C 5.875 -8.597656 6.234375 -8.40625 6.515625 -8.15625 C 6.796875 -7.90625 7.003906 -7.601562 7.140625 -7.25 C 7.285156 -6.90625 7.359375 -6.523438 7.359375 -6.109375 C 7.359375 -5.671875 7.285156 -5.269531 7.140625 -4.90625 C 6.992188 -4.550781 6.773438 -4.242188 6.484375 -3.984375 C 6.191406 -3.722656 5.828125 -3.519531 5.390625 -3.375 C 4.960938 -3.226562 4.457031 -3.15625 3.875 -3.15625 Z M 2.625 -4.453125 L 3.875 -4.453125 C 4.1875 -4.453125 4.453125 -4.488281 4.671875 -4.5625 C 4.898438 -4.644531 5.085938 -4.753906 5.234375 -4.890625 C 5.390625 -5.035156 5.503906 -5.207031 5.578125 -5.40625 C 5.648438 -5.613281 5.6875 -5.847656 5.6875 -6.109375 C 5.6875 -6.347656 5.648438 -6.5625 5.578125 -6.75 C 5.503906 -6.945312 5.390625 -7.113281 5.234375 -7.25 C 5.085938 -7.382812 4.898438 -7.488281 4.671875 -7.5625 C 4.453125 -7.632812 4.1875 -7.671875 3.875 -7.671875 L 2.625 -7.671875 Z M 2.625 -4.453125 "/></g></g><g style="fill:rgb(1.959229%,3.919983%,18.818665%);fill-opacity:1;"><g transform="translate(264.326688, 259.588076)"><path style="stroke:none;" d="M 2.625 -3.5 L 2.625 0 L 0.953125 0 L 0.953125 -8.953125 L 3.6875 -8.953125 C 4.300781 -8.953125 4.828125 -8.890625 5.265625 -8.765625 C 5.703125 -8.640625 6.054688 -8.460938 6.328125 -8.234375 C 6.609375 -8.015625 6.8125 -7.742188 6.9375 -7.421875 C 7.070312 -7.109375 7.140625 -6.757812 7.140625 -6.375 C 7.140625 -6.070312 7.09375 -5.785156 7 -5.515625 C 6.914062 -5.253906 6.789062 -5.015625 6.625 -4.796875 C 6.457031 -4.578125 6.25 -4.382812 6 -4.21875 C 5.757812 -4.050781 5.484375 -3.921875 5.171875 -3.828125 C 5.378906 -3.703125 5.5625 -3.53125 5.71875 -3.3125 L 7.953125 0 L 6.453125 0 C 6.304688 0 6.179688 -0.0234375 6.078125 -0.078125 C 5.984375 -0.140625 5.898438 -0.222656 5.828125 -0.328125 L 3.953125 -3.203125 C 3.878906 -3.304688 3.800781 -3.378906 3.71875 -3.421875 C 3.632812 -3.472656 3.507812 -3.5 3.34375 -3.5 Z M 2.625 -4.703125 L 3.671875 -4.703125 C 3.984375 -4.703125 4.253906 -4.738281 4.484375 -4.8125 C 4.722656 -4.894531 4.914062 -5.003906 5.0625 -5.140625 C 5.21875 -5.273438 5.332031 -5.4375 5.40625 -5.625 C 5.476562 -5.820312 5.515625 -6.03125 5.515625 -6.25 C 5.515625 -6.707031 5.363281 -7.054688 5.0625 -7.296875 C 4.757812 -7.546875 4.300781 -7.671875 3.6875 -7.671875 L 2.625 -7.671875 Z M 2.625 -4.703125 "/></g></g><g style="fill:rgb(1.959229%,3.919983%,18.818665%);fill-opacity:1;"><g transform="translate(274.925089, 259.588076)"><path style="stroke:none;" d="M 2.78125 0 L 1.109375 0 L 1.109375 -8.953125 L 2.78125 -8.953125 Z M 2.78125 0 "/></g></g><g style="fill:rgb(1.959229%,3.919983%,18.818665%);fill-opacity:1;"><g transform="translate(281.297231, 259.588076)"><path style="stroke:none;" d="M 0.03125 -8.953125 L 1.375 -8.953125 C 1.519531 -8.953125 1.632812 -8.914062 1.71875 -8.84375 C 1.8125 -8.78125 1.878906 -8.691406 1.921875 -8.578125 L 4.03125 -3.109375 C 4.101562 -2.929688 4.171875 -2.738281 4.234375 -2.53125 C 4.296875 -2.320312 4.359375 -2.097656 4.421875 -1.859375 C 4.515625 -2.335938 4.628906 -2.753906 4.765625 -3.109375 L 6.875 -8.578125 C 6.90625 -8.671875 6.96875 -8.753906 7.0625 -8.828125 C 7.164062 -8.910156 7.285156 -8.953125 7.421875 -8.953125 L 8.765625 -8.953125 L 5.140625 0 L 3.640625 0 Z M 0.03125 -8.953125 "/></g></g><g style="fill:rgb(1.959229%,3.919983%,18.818665%);fill-opacity:1;"><g transform="translate(292.577279, 259.588076)"><path style="stroke:none;" d="M 8.78125 0 L 7.484375 0 C 7.335938 0 7.21875 -0.0351562 7.125 -0.109375 C 7.039062 -0.179688 6.976562 -0.269531 6.9375 -0.375 L 6.265625 -2.203125 L 2.546875 -2.203125 L 1.890625 -0.375 C 1.847656 -0.28125 1.78125 -0.191406 1.6875 -0.109375 C 1.59375 -0.0351562 1.472656 0 1.328125 0 L 0.03125 0 L 3.5625 -8.953125 L 5.265625 -8.953125 Z M 2.984375 -3.375 L 5.84375 -3.375 L 4.75 -6.359375 C 4.695312 -6.492188 4.640625 -6.648438 4.578125 -6.828125 C 4.515625 -7.003906 4.457031 -7.203125 4.40625 -7.421875 C 4.34375 -7.203125 4.285156 -7 4.234375 -6.8125 C 4.179688 -6.632812 4.128906 -6.476562 4.078125 -6.34375 Z M 2.984375 -3.375 "/></g></g><g style="fill:rgb(1.959229%,3.919983%,18.818665%);fill-opacity:1;"><g transform="translate(303.857327, 259.588076)"><path style="stroke:none;" d="M 8.859375 -4.484375 C 8.859375 -3.828125 8.75 -3.222656 8.53125 -2.671875 C 8.3125 -2.117188 8.003906 -1.644531 7.609375 -1.25 C 7.210938 -0.851562 6.734375 -0.546875 6.171875 -0.328125 C 5.617188 -0.109375 5.003906 0 4.328125 0 L 0.90625 0 L 0.90625 -8.953125 L 4.328125 -8.953125 C 5.003906 -8.953125 5.617188 -8.84375 6.171875 -8.625 C 6.734375 -8.40625 7.210938 -8.097656 7.609375 -7.703125 C 8.003906 -7.304688 8.3125 -6.832031 8.53125 -6.28125 C 8.75 -5.738281 8.859375 -5.140625 8.859375 -4.484375 Z M 7.15625 -4.484375 C 7.15625 -4.972656 7.085938 -5.410156 6.953125 -5.796875 C 6.828125 -6.191406 6.640625 -6.523438 6.390625 -6.796875 C 6.148438 -7.066406 5.851562 -7.269531 5.5 -7.40625 C 5.15625 -7.550781 4.765625 -7.625 4.328125 -7.625 L 2.578125 -7.625 L 2.578125 -1.328125 L 4.328125 -1.328125 C 4.765625 -1.328125 5.15625 -1.398438 5.5 -1.546875 C 5.851562 -1.691406 6.148438 -1.898438 6.390625 -2.171875 C 6.640625 -2.441406 6.828125 -2.769531 6.953125 -3.15625 C 7.085938 -3.539062 7.15625 -3.984375 7.15625 -4.484375 Z M 7.15625 -4.484375 "/></g></g><g style="fill:rgb(1.959229%,3.919983%,18.818665%);fill-opacity:1;"><g transform="translate(315.602141, 259.588076)"><path style="stroke:none;" d="M 9.5 -4.484375 C 9.5 -3.828125 9.390625 -3.21875 9.171875 -2.65625 C 8.953125 -2.09375 8.644531 -1.609375 8.25 -1.203125 C 7.851562 -0.796875 7.375 -0.476562 6.8125 -0.25 C 6.257812 -0.0195312 5.644531 0.09375 4.96875 0.09375 C 4.289062 0.09375 3.671875 -0.0195312 3.109375 -0.25 C 2.546875 -0.476562 2.066406 -0.796875 1.671875 -1.203125 C 1.273438 -1.609375 0.96875 -2.09375 0.75 -2.65625 C 0.53125 -3.21875 0.421875 -3.828125 0.421875 -4.484375 C 0.421875 -5.140625 0.53125 -5.742188 0.75 -6.296875 C 0.96875 -6.859375 1.273438 -7.34375 1.671875 -7.75 C 2.066406 -8.164062 2.546875 -8.488281 3.109375 -8.71875 C 3.671875 -8.945312 4.289062 -9.0625 4.96875 -9.0625 C 5.644531 -9.0625 6.257812 -8.941406 6.8125 -8.703125 C 7.375 -8.472656 7.851562 -8.15625 8.25 -7.75 C 8.644531 -7.34375 8.953125 -6.859375 9.171875 -6.296875 C 9.390625 -5.742188 9.5 -5.140625 9.5 -4.484375 Z M 7.78125 -4.484375 C 7.78125 -4.972656 7.710938 -5.410156 7.578125 -5.796875 C 7.453125 -6.191406 7.269531 -6.523438 7.03125 -6.796875 C 6.789062 -7.066406 6.492188 -7.273438 6.140625 -7.421875 C 5.796875 -7.566406 5.40625 -7.640625 4.96875 -7.640625 C 4.53125 -7.640625 4.132812 -7.566406 3.78125 -7.421875 C 3.425781 -7.273438 3.125 -7.066406 2.875 -6.796875 C 2.632812 -6.523438 2.445312 -6.191406 2.3125 -5.796875 C 2.1875 -5.410156 2.125 -4.972656 2.125 -4.484375 C 2.125 -3.984375 2.1875 -3.539062 2.3125 -3.15625 C 2.445312 -2.769531 2.632812 -2.441406 2.875 -2.171875 C 3.125 -1.898438 3.425781 -1.691406 3.78125 -1.546875 C 4.132812 -1.398438 4.53125 -1.328125 4.96875 -1.328125 C 5.40625 -1.328125 5.796875 -1.398438 6.140625 -1.546875 C 6.492188 -1.691406 6.789062 -1.898438 7.03125 -2.171875 C 7.269531 -2.441406 7.453125 -2.769531 7.578125 -3.15625 C 7.710938 -3.539062 7.78125 -3.984375 7.78125 -4.484375 Z M 7.78125 -4.484375 "/></g></g><g style="fill:rgb(1.959229%,3.919983%,18.818665%);fill-opacity:1;"><g transform="translate(327.991427, 259.588076)"><path style="stroke:none;" d="M 5.703125 -7.328125 C 5.660156 -7.234375 5.609375 -7.164062 5.546875 -7.125 C 5.484375 -7.09375 5.410156 -7.078125 5.328125 -7.078125 C 5.242188 -7.078125 5.148438 -7.109375 5.046875 -7.171875 C 4.953125 -7.234375 4.832031 -7.304688 4.6875 -7.390625 C 4.550781 -7.472656 4.390625 -7.546875 4.203125 -7.609375 C 4.015625 -7.671875 3.789062 -7.703125 3.53125 -7.703125 C 3.300781 -7.703125 3.097656 -7.671875 2.921875 -7.609375 C 2.753906 -7.554688 2.609375 -7.476562 2.484375 -7.375 C 2.367188 -7.28125 2.28125 -7.164062 2.21875 -7.03125 C 2.164062 -6.894531 2.140625 -6.742188 2.140625 -6.578125 C 2.140625 -6.359375 2.195312 -6.179688 2.3125 -6.046875 C 2.4375 -5.910156 2.59375 -5.789062 2.78125 -5.6875 C 2.976562 -5.582031 3.203125 -5.488281 3.453125 -5.40625 C 3.703125 -5.332031 3.953125 -5.25 4.203125 -5.15625 C 4.460938 -5.070312 4.71875 -4.972656 4.96875 -4.859375 C 5.21875 -4.742188 5.4375 -4.59375 5.625 -4.40625 C 5.820312 -4.226562 5.976562 -4.007812 6.09375 -3.75 C 6.21875 -3.488281 6.28125 -3.175781 6.28125 -2.8125 C 6.28125 -2.40625 6.207031 -2.023438 6.0625 -1.671875 C 5.925781 -1.316406 5.722656 -1.007812 5.453125 -0.75 C 5.191406 -0.488281 4.867188 -0.28125 4.484375 -0.125 C 4.097656 0.0195312 3.660156 0.09375 3.171875 0.09375 C 2.878906 0.09375 2.59375 0.0664062 2.3125 0.015625 C 2.039062 -0.0351562 1.773438 -0.113281 1.515625 -0.21875 C 1.265625 -0.320312 1.03125 -0.445312 0.8125 -0.59375 C 0.59375 -0.738281 0.394531 -0.898438 0.21875 -1.078125 L 0.703125 -1.875 C 0.753906 -1.9375 0.8125 -1.984375 0.875 -2.015625 C 0.9375 -2.054688 1.003906 -2.078125 1.078125 -2.078125 C 1.179688 -2.078125 1.289062 -2.035156 1.40625 -1.953125 C 1.53125 -1.867188 1.675781 -1.773438 1.84375 -1.671875 C 2.007812 -1.566406 2.203125 -1.472656 2.421875 -1.390625 C 2.640625 -1.304688 2.90625 -1.265625 3.21875 -1.265625 C 3.6875 -1.265625 4.050781 -1.375 4.3125 -1.59375 C 4.570312 -1.820312 4.703125 -2.148438 4.703125 -2.578125 C 4.703125 -2.804688 4.644531 -2.992188 4.53125 -3.140625 C 4.414062 -3.296875 4.257812 -3.421875 4.0625 -3.515625 C 3.863281 -3.617188 3.640625 -3.707031 3.390625 -3.78125 C 3.148438 -3.851562 2.898438 -3.925781 2.640625 -4 C 2.390625 -4.082031 2.140625 -4.179688 1.890625 -4.296875 C 1.640625 -4.421875 1.414062 -4.570312 1.21875 -4.75 C 1.03125 -4.9375 0.875 -5.171875 0.75 -5.453125 C 0.632812 -5.734375 0.578125 -6.078125 0.578125 -6.484375 C 0.578125 -6.804688 0.640625 -7.125 0.765625 -7.4375 C 0.898438 -7.75 1.09375 -8.023438 1.34375 -8.265625 C 1.59375 -8.503906 1.898438 -8.695312 2.265625 -8.84375 C 2.628906 -8.988281 3.046875 -9.0625 3.515625 -9.0625 C 4.046875 -9.0625 4.53125 -8.976562 4.96875 -8.8125 C 5.414062 -8.644531 5.796875 -8.410156 6.109375 -8.109375 Z M 5.703125 -7.328125 "/></g></g></g></svg>